<mxfile host="Electron" modified="2024-07-02T11:15:20.456Z" agent="Mozilla/5.0 (Windows NT 10.0; Win64; x64) AppleWebKit/537.36 (KHTML, like Gecko) draw.io/24.6.4 Chrome/124.0.6367.207 Electron/30.0.6 Safari/537.36" etag="ZbqwCvSRYnPSwSLTSKU3" version="24.6.4" type="device">
  <diagram name="Page-1" id="p72IjKB9Pl9rNEXVFoC6">
    <mxGraphModel dx="1036" dy="606" grid="1" gridSize="10" guides="1" tooltips="1" connect="1" arrows="1" fold="1" page="1" pageScale="1" pageWidth="850" pageHeight="1100" math="0" shadow="0">
      <root>
        <mxCell id="0" />
        <mxCell id="1" parent="0" />
        <mxCell id="ZvLV57be8rlFii3s5Ngu-2" value="POS System" style="shape=umlFrame;whiteSpace=wrap;html=1;pointerEvents=0;" parent="1" vertex="1">
          <mxGeometry x="270" y="210" width="350" height="880" as="geometry" />
        </mxCell>
        <mxCell id="ZvLV57be8rlFii3s5Ngu-3" value="Customer" style="shape=umlActor;verticalLabelPosition=bottom;verticalAlign=top;html=1;" parent="1" vertex="1">
          <mxGeometry x="160" y="500" width="30" height="60" as="geometry" />
        </mxCell>
        <mxCell id="ZvLV57be8rlFii3s5Ngu-4" value="Casheir" style="shape=umlActor;verticalLabelPosition=bottom;verticalAlign=top;html=1;" parent="1" vertex="1">
          <mxGeometry x="660" y="300" width="30" height="60" as="geometry" />
        </mxCell>
        <mxCell id="ZvLV57be8rlFii3s5Ngu-5" value="Maneger" style="shape=umlActor;verticalLabelPosition=bottom;verticalAlign=top;html=1;" parent="1" vertex="1">
          <mxGeometry x="646" y="820" width="30" height="60" as="geometry" />
        </mxCell>
        <mxCell id="ZvLV57be8rlFii3s5Ngu-10" value="&lt;font style=&quot;font-size: 9px;&quot;&gt;Login&lt;/font&gt;" style="ellipse;whiteSpace=wrap;html=1;" parent="1" vertex="1">
          <mxGeometry x="420" y="285" width="77.5" height="40" as="geometry" />
        </mxCell>
        <mxCell id="ZvLV57be8rlFii3s5Ngu-25" value="&lt;font style=&quot;font-size: 9px;&quot;&gt;Verify Login&lt;/font&gt;" style="ellipse;whiteSpace=wrap;html=1;" parent="1" vertex="1">
          <mxGeometry x="300" y="245" width="77.5" height="40" as="geometry" />
        </mxCell>
        <mxCell id="ZvLV57be8rlFii3s5Ngu-26" value="&lt;font style=&quot;font-size: 9px;&quot;&gt;Display Login Error&lt;/font&gt;" style="ellipse;whiteSpace=wrap;html=1;" parent="1" vertex="1">
          <mxGeometry x="300" y="325" width="77.5" height="40" as="geometry" />
        </mxCell>
        <mxCell id="ZvLV57be8rlFii3s5Ngu-27" value="&lt;font style=&quot;font-size: 7px;&quot;&gt;&amp;lt;&lt;/font&gt;&lt;font style=&quot;font-size: 8px;&quot;&gt;&amp;lt;&lt;/font&gt;&lt;font style=&quot;font-size: 7px;&quot;&gt;Include&amp;gt;&lt;/font&gt;&lt;font style=&quot;font-size: 7px;&quot;&gt;&amp;gt;&lt;/font&gt;" style="endArrow=classicThin;endSize=12;dashed=1;html=1;rounded=0;entryX=1;entryY=0.5;entryDx=0;entryDy=0;exitX=0.027;exitY=0.322;exitDx=0;exitDy=0;edgeStyle=elbowEdgeStyle;elbow=horizontal;endFill=1;startSize=6;exitPerimeter=0;" parent="1" source="ZvLV57be8rlFii3s5Ngu-10" target="ZvLV57be8rlFii3s5Ngu-25" edge="1">
          <mxGeometry width="160" relative="1" as="geometry">
            <mxPoint x="290" y="344.79" as="sourcePoint" />
            <mxPoint x="450" y="344.79" as="targetPoint" />
          </mxGeometry>
        </mxCell>
        <mxCell id="ZvLV57be8rlFii3s5Ngu-30" value="&lt;font style=&quot;font-size: 7px;&quot;&gt;&amp;lt;&amp;lt;extend&amp;gt;&amp;gt;&lt;/font&gt;" style="endArrow=classicThin;endSize=12;dashed=1;html=1;rounded=0;entryX=0.007;entryY=0.731;entryDx=0;entryDy=0;exitX=1;exitY=0.5;exitDx=0;exitDy=0;edgeStyle=elbowEdgeStyle;elbow=vertical;endFill=1;startSize=6;entryPerimeter=0;" parent="1" source="ZvLV57be8rlFii3s5Ngu-26" target="ZvLV57be8rlFii3s5Ngu-10" edge="1">
          <mxGeometry width="160" relative="1" as="geometry">
            <mxPoint x="430" y="315" as="sourcePoint" />
            <mxPoint x="398" y="275" as="targetPoint" />
          </mxGeometry>
        </mxCell>
        <mxCell id="ZvLV57be8rlFii3s5Ngu-42" value="&lt;font size=&quot;1&quot;&gt;Place Oeder&lt;/font&gt;" style="ellipse;whiteSpace=wrap;html=1;" parent="1" vertex="1">
          <mxGeometry x="406.25" y="430" width="77.5" height="40" as="geometry" />
        </mxCell>
        <mxCell id="ZvLV57be8rlFii3s5Ngu-49" value="&lt;font style=&quot;font-size: 10px;&quot;&gt;Category 1&lt;/font&gt;" style="ellipse;whiteSpace=wrap;html=1;" parent="1" vertex="1">
          <mxGeometry x="342.5" y="390" width="63.75" height="30" as="geometry" />
        </mxCell>
        <mxCell id="ZvLV57be8rlFii3s5Ngu-50" value="&lt;font style=&quot;font-size: 10px;&quot;&gt;Category 2&lt;/font&gt;" style="ellipse;whiteSpace=wrap;html=1;" parent="1" vertex="1">
          <mxGeometry x="406.25" y="365" width="63.75" height="30" as="geometry" />
        </mxCell>
        <mxCell id="ZvLV57be8rlFii3s5Ngu-51" value="&lt;font style=&quot;font-size: 10px;&quot;&gt;Category 3&lt;/font&gt;" style="ellipse;whiteSpace=wrap;html=1;" parent="1" vertex="1">
          <mxGeometry x="470" y="390" width="63.75" height="30" as="geometry" />
        </mxCell>
        <mxCell id="ZvLV57be8rlFii3s5Ngu-52" value="" style="endArrow=classicThin;endFill=1;endSize=12;html=1;rounded=0;exitX=1;exitY=1;exitDx=0;exitDy=0;" parent="1" source="ZvLV57be8rlFii3s5Ngu-49" target="ZvLV57be8rlFii3s5Ngu-42" edge="1">
          <mxGeometry width="160" relative="1" as="geometry">
            <mxPoint x="470" y="440" as="sourcePoint" />
            <mxPoint x="630" y="440" as="targetPoint" />
          </mxGeometry>
        </mxCell>
        <mxCell id="ZvLV57be8rlFii3s5Ngu-53" value="" style="endArrow=classicThin;endFill=1;endSize=12;html=1;rounded=0;exitX=0.5;exitY=1;exitDx=0;exitDy=0;entryX=0.5;entryY=0;entryDx=0;entryDy=0;" parent="1" source="ZvLV57be8rlFii3s5Ngu-50" target="ZvLV57be8rlFii3s5Ngu-42" edge="1">
          <mxGeometry width="160" relative="1" as="geometry">
            <mxPoint x="407" y="426" as="sourcePoint" />
            <mxPoint x="432" y="444" as="targetPoint" />
          </mxGeometry>
        </mxCell>
        <mxCell id="ZvLV57be8rlFii3s5Ngu-54" value="" style="endArrow=classicThin;endFill=1;endSize=12;html=1;rounded=0;exitX=0.494;exitY=1.147;exitDx=0;exitDy=0;entryX=0.922;entryY=0.294;entryDx=0;entryDy=0;exitPerimeter=0;entryPerimeter=0;" parent="1" source="ZvLV57be8rlFii3s5Ngu-51" target="ZvLV57be8rlFii3s5Ngu-42" edge="1">
          <mxGeometry width="160" relative="1" as="geometry">
            <mxPoint x="448" y="405" as="sourcePoint" />
            <mxPoint x="455" y="440" as="targetPoint" />
          </mxGeometry>
        </mxCell>
        <mxCell id="ZvLV57be8rlFii3s5Ngu-56" value="" style="endArrow=none;html=1;rounded=0;exitX=1;exitY=0.5;exitDx=0;exitDy=0;entryX=0.461;entryY=0.572;entryDx=0;entryDy=0;entryPerimeter=0;edgeStyle=orthogonalEdgeStyle;" parent="1" edge="1">
          <mxGeometry width="50" height="50" relative="1" as="geometry">
            <mxPoint x="483.75" y="452" as="sourcePoint" />
            <mxPoint x="674.8299999999999" y="326.32" as="targetPoint" />
            <Array as="points">
              <mxPoint x="541" y="452" />
              <mxPoint x="541" y="326" />
            </Array>
          </mxGeometry>
        </mxCell>
        <mxCell id="ZvLV57be8rlFii3s5Ngu-57" value="&lt;span style=&quot;font-size: 10px;&quot;&gt;Discount&lt;/span&gt;" style="ellipse;whiteSpace=wrap;html=1;" parent="1" vertex="1">
          <mxGeometry x="278.75" y="520" width="63.75" height="30" as="geometry" />
        </mxCell>
        <mxCell id="ZvLV57be8rlFii3s5Ngu-59" value="&lt;font style=&quot;font-size: 7px;&quot;&gt;&amp;lt;&amp;lt;Include&amp;gt;&amp;gt;&lt;/font&gt;" style="endArrow=classic;endSize=12;dashed=1;html=1;rounded=0;exitX=0.011;exitY=0.666;exitDx=0;exitDy=0;exitPerimeter=0;entryX=0.5;entryY=0;entryDx=0;entryDy=0;endFill=1;" parent="1" source="ZvLV57be8rlFii3s5Ngu-42" target="ZvLV57be8rlFii3s5Ngu-57" edge="1">
          <mxGeometry width="160" relative="1" as="geometry">
            <mxPoint x="480" y="520" as="sourcePoint" />
            <mxPoint x="640" y="520" as="targetPoint" />
          </mxGeometry>
        </mxCell>
        <mxCell id="ZvLV57be8rlFii3s5Ngu-60" value="" style="endArrow=none;html=1;rounded=0;entryX=0.419;entryY=0.643;entryDx=0;entryDy=0;entryPerimeter=0;exitX=1;exitY=0.5;exitDx=0;exitDy=0;edgeStyle=orthogonalEdgeStyle;" parent="1" edge="1">
          <mxGeometry width="50" height="50" relative="1" as="geometry">
            <mxPoint x="483.75" y="515" as="sourcePoint" />
            <mxPoint x="674.57" y="329.58" as="targetPoint" />
            <Array as="points">
              <mxPoint x="484" y="513" />
              <mxPoint x="552" y="513" />
              <mxPoint x="552" y="330" />
            </Array>
          </mxGeometry>
        </mxCell>
        <mxCell id="ZvLV57be8rlFii3s5Ngu-61" value="&lt;font size=&quot;1&quot;&gt;Discount&lt;/font&gt;" style="ellipse;whiteSpace=wrap;html=1;" parent="1" vertex="1">
          <mxGeometry x="406.25" y="492" width="77.5" height="40" as="geometry" />
        </mxCell>
        <mxCell id="ZvLV57be8rlFii3s5Ngu-62" value="&lt;span style=&quot;font-size: 7px;&quot;&gt;&amp;lt;&amp;lt;Extend&amp;gt;&amp;gt;&lt;/span&gt;" style="endArrow=classic;endSize=12;dashed=1;html=1;rounded=0;entryX=1;entryY=0.5;entryDx=0;entryDy=0;endFill=1;" parent="1" source="ZvLV57be8rlFii3s5Ngu-61" target="ZvLV57be8rlFii3s5Ngu-57" edge="1">
          <mxGeometry width="160" relative="1" as="geometry">
            <mxPoint x="417" y="467" as="sourcePoint" />
            <mxPoint x="349" y="520" as="targetPoint" />
          </mxGeometry>
        </mxCell>
        <mxCell id="ZvLV57be8rlFii3s5Ngu-63" value="&lt;span style=&quot;font-size: 7px;&quot;&gt;&amp;lt;&amp;lt;Extend&amp;gt;&amp;gt;&lt;/span&gt;" style="endArrow=classic;endSize=12;dashed=1;html=1;rounded=0;entryX=0;entryY=1;entryDx=0;entryDy=0;endFill=1;exitX=1;exitY=0;exitDx=0;exitDy=0;" parent="1" source="ZvLV57be8rlFii3s5Ngu-57" target="ZvLV57be8rlFii3s5Ngu-42" edge="1">
          <mxGeometry width="160" relative="1" as="geometry">
            <mxPoint x="419" y="530" as="sourcePoint" />
            <mxPoint x="353" y="545" as="targetPoint" />
          </mxGeometry>
        </mxCell>
        <mxCell id="ZvLV57be8rlFii3s5Ngu-65" value="" style="endArrow=none;html=1;rounded=0;entryX=0.472;entryY=0.382;entryDx=0;entryDy=0;entryPerimeter=0;edgeStyle=orthogonalEdgeStyle;" parent="1" source="ZvLV57be8rlFii3s5Ngu-10" target="ZvLV57be8rlFii3s5Ngu-4" edge="1">
          <mxGeometry width="50" height="50" relative="1" as="geometry">
            <mxPoint x="570" y="350" as="sourcePoint" />
            <mxPoint x="620" y="300" as="targetPoint" />
          </mxGeometry>
        </mxCell>
        <mxCell id="ZvLV57be8rlFii3s5Ngu-66" value="" style="endArrow=none;html=1;rounded=0;exitX=0.5;exitY=0.5;exitDx=0;exitDy=0;exitPerimeter=0;entryX=0;entryY=0.5;entryDx=0;entryDy=0;edgeStyle=orthogonalEdgeStyle;" parent="1" edge="1">
          <mxGeometry width="50" height="50" relative="1" as="geometry">
            <mxPoint x="175" y="523" as="sourcePoint" />
            <mxPoint x="406.2500000000007" y="443" as="targetPoint" />
            <Array as="points">
              <mxPoint x="200" y="523" />
              <mxPoint x="200" y="443" />
            </Array>
          </mxGeometry>
        </mxCell>
        <mxCell id="ZvLV57be8rlFii3s5Ngu-68" value="&lt;font style=&quot;font-size: 7px;&quot;&gt;Customer ADD/Update/Delete&lt;/font&gt;" style="ellipse;whiteSpace=wrap;html=1;" parent="1" vertex="1">
          <mxGeometry x="406.25" y="560" width="73.75" height="40" as="geometry" />
        </mxCell>
        <mxCell id="ZvLV57be8rlFii3s5Ngu-69" value="" style="endArrow=none;html=1;rounded=0;exitX=0.501;exitY=0.427;exitDx=0;exitDy=0;exitPerimeter=0;entryX=0;entryY=0.5;entryDx=0;entryDy=0;edgeStyle=orthogonalEdgeStyle;" parent="1" source="ZvLV57be8rlFii3s5Ngu-3" target="ZvLV57be8rlFii3s5Ngu-68" edge="1">
          <mxGeometry width="50" height="50" relative="1" as="geometry">
            <mxPoint x="370" y="490" as="sourcePoint" />
            <mxPoint x="420" y="440" as="targetPoint" />
            <Array as="points">
              <mxPoint x="260" y="526" />
              <mxPoint x="260" y="580" />
            </Array>
          </mxGeometry>
        </mxCell>
        <mxCell id="ZvLV57be8rlFii3s5Ngu-70" value="" style="endArrow=none;html=1;rounded=0;exitX=1;exitY=0.5;exitDx=0;exitDy=0;entryX=0.494;entryY=0.531;entryDx=0;entryDy=0;entryPerimeter=0;edgeStyle=orthogonalEdgeStyle;" parent="1" source="ZvLV57be8rlFii3s5Ngu-68" target="ZvLV57be8rlFii3s5Ngu-4" edge="1">
          <mxGeometry width="50" height="50" relative="1" as="geometry">
            <mxPoint x="470" y="460" as="sourcePoint" />
            <mxPoint x="520" y="410" as="targetPoint" />
            <Array as="points">
              <mxPoint x="570" y="580" />
              <mxPoint x="570" y="332" />
            </Array>
          </mxGeometry>
        </mxCell>
        <mxCell id="ZvLV57be8rlFii3s5Ngu-72" value="&lt;font style=&quot;font-size: 10px;&quot;&gt;Chekout&lt;/font&gt;" style="ellipse;whiteSpace=wrap;html=1;" parent="1" vertex="1">
          <mxGeometry x="410" y="626" width="73.75" height="40" as="geometry" />
        </mxCell>
        <mxCell id="ZvLV57be8rlFii3s5Ngu-76" value="&lt;span style=&quot;font-size: 10px;&quot;&gt;Cash&lt;/span&gt;" style="ellipse;whiteSpace=wrap;html=1;" parent="1" vertex="1">
          <mxGeometry x="340" y="650" width="63.75" height="30" as="geometry" />
        </mxCell>
        <mxCell id="ZvLV57be8rlFii3s5Ngu-77" value="&lt;span style=&quot;font-size: 10px;&quot;&gt;Card&lt;/span&gt;" style="ellipse;whiteSpace=wrap;html=1;" parent="1" vertex="1">
          <mxGeometry x="342.5" y="685" width="63.75" height="30" as="geometry" />
        </mxCell>
        <mxCell id="ZvLV57be8rlFii3s5Ngu-78" value="" style="endArrow=classic;html=1;rounded=0;exitX=1;exitY=0;exitDx=0;exitDy=0;entryX=0.014;entryY=0.637;entryDx=0;entryDy=0;entryPerimeter=0;" parent="1" source="ZvLV57be8rlFii3s5Ngu-76" target="ZvLV57be8rlFii3s5Ngu-72" edge="1">
          <mxGeometry width="50" height="50" relative="1" as="geometry">
            <mxPoint x="360" y="550" as="sourcePoint" />
            <mxPoint x="410" y="500" as="targetPoint" />
          </mxGeometry>
        </mxCell>
        <mxCell id="ZvLV57be8rlFii3s5Ngu-79" value="" style="endArrow=classic;html=1;rounded=0;entryX=0;entryY=1;entryDx=0;entryDy=0;" parent="1" source="ZvLV57be8rlFii3s5Ngu-77" target="ZvLV57be8rlFii3s5Ngu-72" edge="1">
          <mxGeometry width="50" height="50" relative="1" as="geometry">
            <mxPoint x="411" y="684" as="sourcePoint" />
            <mxPoint x="431" y="664" as="targetPoint" />
          </mxGeometry>
        </mxCell>
        <mxCell id="ZvLV57be8rlFii3s5Ngu-81" value="" style="endArrow=none;html=1;rounded=0;exitX=0.507;exitY=0.425;exitDx=0;exitDy=0;exitPerimeter=0;entryX=0;entryY=0.5;entryDx=0;entryDy=0;edgeStyle=orthogonalEdgeStyle;" parent="1" source="ZvLV57be8rlFii3s5Ngu-3" target="ZvLV57be8rlFii3s5Ngu-72" edge="1">
          <mxGeometry width="50" height="50" relative="1" as="geometry">
            <mxPoint x="330" y="640" as="sourcePoint" />
            <mxPoint x="380" y="590" as="targetPoint" />
            <Array as="points">
              <mxPoint x="250" y="525" />
              <mxPoint x="250" y="646" />
            </Array>
          </mxGeometry>
        </mxCell>
        <mxCell id="ZvLV57be8rlFii3s5Ngu-82" value="" style="endArrow=none;html=1;rounded=0;entryX=1;entryY=0.188;entryDx=0;entryDy=0;entryPerimeter=0;exitX=1;exitY=0.5;exitDx=0;exitDy=0;edgeStyle=orthogonalEdgeStyle;" parent="1" source="ZvLV57be8rlFii3s5Ngu-72" target="ZvLV57be8rlFii3s5Ngu-2" edge="1">
          <mxGeometry width="50" height="50" relative="1" as="geometry">
            <mxPoint x="510" y="390" as="sourcePoint" />
            <mxPoint x="560" y="340" as="targetPoint" />
            <Array as="points">
              <mxPoint x="590" y="646" />
              <mxPoint x="590" y="332" />
            </Array>
          </mxGeometry>
        </mxCell>
        <mxCell id="ZvLV57be8rlFii3s5Ngu-83" value="&lt;span style=&quot;font-size: 10px;&quot;&gt;process bill&lt;/span&gt;" style="ellipse;whiteSpace=wrap;html=1;" parent="1" vertex="1">
          <mxGeometry x="550" y="674" width="63.75" height="30" as="geometry" />
        </mxCell>
        <mxCell id="ZvLV57be8rlFii3s5Ngu-84" value="&lt;font style=&quot;font-size: 7px;&quot;&gt;&amp;lt;&amp;lt;include&amp;gt;&amp;gt;&lt;/font&gt;" style="endArrow=classicThin;endSize=12;dashed=1;html=1;rounded=0;entryX=0.026;entryY=0.414;entryDx=0;entryDy=0;entryPerimeter=0;exitX=0.972;exitY=0.644;exitDx=0;exitDy=0;exitPerimeter=0;endFill=1;" parent="1" source="ZvLV57be8rlFii3s5Ngu-72" target="ZvLV57be8rlFii3s5Ngu-83" edge="1">
          <mxGeometry width="160" relative="1" as="geometry">
            <mxPoint x="330" y="680" as="sourcePoint" />
            <mxPoint x="490" y="680" as="targetPoint" />
          </mxGeometry>
        </mxCell>
        <mxCell id="ZvLV57be8rlFii3s5Ngu-85" value="&lt;span style=&quot;font-size: 10px;&quot;&gt;print bill&lt;/span&gt;" style="ellipse;whiteSpace=wrap;html=1;" parent="1" vertex="1">
          <mxGeometry x="500" y="704" width="63.75" height="30" as="geometry" />
        </mxCell>
        <mxCell id="ZvLV57be8rlFii3s5Ngu-86" value="&lt;font style=&quot;font-size: 7px;&quot;&gt;&amp;lt;&amp;lt;extend&amp;gt;&amp;gt;&lt;/font&gt;" style="endArrow=classicThin;endSize=12;dashed=1;html=1;rounded=0;entryX=0.5;entryY=1;entryDx=0;entryDy=0;exitX=0;exitY=0.2;exitDx=0;exitDy=0;exitPerimeter=0;endFill=1;" parent="1" source="ZvLV57be8rlFii3s5Ngu-85" target="ZvLV57be8rlFii3s5Ngu-72" edge="1">
          <mxGeometry width="160" relative="1" as="geometry">
            <mxPoint x="492" y="662" as="sourcePoint" />
            <mxPoint x="562" y="696" as="targetPoint" />
          </mxGeometry>
        </mxCell>
        <mxCell id="ZvLV57be8rlFii3s5Ngu-88" value="" style="endArrow=none;html=1;rounded=0;entryX=0.5;entryY=0.5;entryDx=0;entryDy=0;entryPerimeter=0;exitX=0.5;exitY=0;exitDx=0;exitDy=0;edgeStyle=orthogonalEdgeStyle;" parent="1" source="ZvLV57be8rlFii3s5Ngu-10" target="ZvLV57be8rlFii3s5Ngu-5" edge="1">
          <mxGeometry width="50" height="50" relative="1" as="geometry">
            <mxPoint x="430" y="990" as="sourcePoint" />
            <mxPoint x="480" y="940" as="targetPoint" />
            <Array as="points">
              <mxPoint x="459" y="275" />
              <mxPoint x="770" y="275" />
              <mxPoint x="770" y="850" />
            </Array>
          </mxGeometry>
        </mxCell>
        <mxCell id="ZvLV57be8rlFii3s5Ngu-89" value="&lt;font style=&quot;font-size: 8px;&quot;&gt;item add/update/delete&lt;/font&gt;" style="ellipse;whiteSpace=wrap;html=1;" parent="1" vertex="1">
          <mxGeometry x="410" y="830" width="73.75" height="40" as="geometry" />
        </mxCell>
        <mxCell id="ZvLV57be8rlFii3s5Ngu-90" value="" style="endArrow=none;html=1;rounded=0;exitX=1;exitY=0.5;exitDx=0;exitDy=0;" parent="1" source="ZvLV57be8rlFii3s5Ngu-89" edge="1">
          <mxGeometry width="50" height="50" relative="1" as="geometry">
            <mxPoint x="170" y="740" as="sourcePoint" />
            <mxPoint x="660" y="850" as="targetPoint" />
          </mxGeometry>
        </mxCell>
        <mxCell id="ZvLV57be8rlFii3s5Ngu-91" value="&lt;span style=&quot;font-size: 8px;&quot;&gt;Custmer History&lt;/span&gt;" style="ellipse;whiteSpace=wrap;html=1;" parent="1" vertex="1">
          <mxGeometry x="410" y="910" width="73.75" height="40" as="geometry" />
        </mxCell>
        <mxCell id="ZvLV57be8rlFii3s5Ngu-92" value="&lt;span style=&quot;font-size: 10px;&quot;&gt;exp date&lt;/span&gt;" style="ellipse;whiteSpace=wrap;html=1;" parent="1" vertex="1">
          <mxGeometry x="300" y="780" width="63.75" height="30" as="geometry" />
        </mxCell>
        <mxCell id="ZvLV57be8rlFii3s5Ngu-93" value="&lt;font style=&quot;font-size: 7px;&quot;&gt;&amp;lt;&amp;lt;include&amp;gt;&amp;gt;&lt;/font&gt;" style="endArrow=classicThin;endSize=12;dashed=1;html=1;rounded=0;entryX=0.688;entryY=0.995;entryDx=0;entryDy=0;entryPerimeter=0;exitX=0;exitY=0.5;exitDx=0;exitDy=0;endFill=1;" parent="1" source="ZvLV57be8rlFii3s5Ngu-89" target="ZvLV57be8rlFii3s5Ngu-92" edge="1">
          <mxGeometry width="160" relative="1" as="geometry">
            <mxPoint x="492" y="662" as="sourcePoint" />
            <mxPoint x="562" y="696" as="targetPoint" />
          </mxGeometry>
        </mxCell>
        <mxCell id="ZvLV57be8rlFii3s5Ngu-95" value="&lt;font style=&quot;font-size: 7px;&quot;&gt;&amp;lt;&amp;lt;extend&amp;gt;&amp;gt;&lt;/font&gt;" style="endArrow=classicThin;endSize=12;dashed=1;html=1;rounded=0;entryX=0.046;entryY=0.852;entryDx=0;entryDy=0;exitX=1;exitY=0.5;exitDx=0;exitDy=0;endFill=1;entryPerimeter=0;" parent="1" source="ZvLV57be8rlFii3s5Ngu-96" target="ZvLV57be8rlFii3s5Ngu-89" edge="1">
          <mxGeometry width="160" relative="1" as="geometry">
            <mxPoint x="377.5" y="944" as="sourcePoint" />
            <mxPoint x="324.5" y="900" as="targetPoint" />
          </mxGeometry>
        </mxCell>
        <mxCell id="ZvLV57be8rlFii3s5Ngu-96" value="&lt;span style=&quot;font-size: 10px;&quot;&gt;exp alat message&lt;/span&gt;" style="ellipse;whiteSpace=wrap;html=1;" parent="1" vertex="1">
          <mxGeometry x="290" y="880" width="63.75" height="30" as="geometry" />
        </mxCell>
        <mxCell id="ZvLV57be8rlFii3s5Ngu-98" value="" style="endArrow=none;html=1;rounded=0;exitX=1;exitY=0.5;exitDx=0;exitDy=0;edgeStyle=orthogonalEdgeStyle;" parent="1" source="ZvLV57be8rlFii3s5Ngu-91" edge="1">
          <mxGeometry width="50" height="50" relative="1" as="geometry">
            <mxPoint x="500" y="880" as="sourcePoint" />
            <mxPoint x="640" y="850" as="targetPoint" />
            <Array as="points">
              <mxPoint x="510" y="930" />
              <mxPoint x="510" y="850" />
            </Array>
          </mxGeometry>
        </mxCell>
        <mxCell id="ZvLV57be8rlFii3s5Ngu-99" value="&lt;span style=&quot;font-size: 8px;&quot;&gt;Order History&lt;/span&gt;" style="ellipse;whiteSpace=wrap;html=1;" parent="1" vertex="1">
          <mxGeometry x="410" y="1000" width="73.75" height="40" as="geometry" />
        </mxCell>
        <mxCell id="ZvLV57be8rlFii3s5Ngu-100" value="" style="endArrow=none;html=1;rounded=0;exitX=1;exitY=0.5;exitDx=0;exitDy=0;edgeStyle=orthogonalEdgeStyle;" parent="1" source="ZvLV57be8rlFii3s5Ngu-99" edge="1">
          <mxGeometry width="50" height="50" relative="1" as="geometry">
            <mxPoint x="330" y="790" as="sourcePoint" />
            <mxPoint x="600" y="850" as="targetPoint" />
            <Array as="points">
              <mxPoint x="530" y="1020" />
              <mxPoint x="530" y="850" />
            </Array>
          </mxGeometry>
        </mxCell>
      </root>
    </mxGraphModel>
  </diagram>
</mxfile>
